<!DOCTYPE svg PUBLIC "-//W3C//DTD SVG 1.1//EN" "http://www.w3.org/Graphics/SVG/1.1/DTD/svg11.dtd">

<!-- Uploaded to: SVG Repo, www.svgrepo.com, Transformed by: SVG Repo Mixer Tools -->
<svg width="60px" height="60px" viewBox="-10.8 -10.8 57.60 57.60" xmlns="http://www.w3.org/2000/svg" xmlns:xlink="http://www.w3.org/1999/xlink" aria-hidden="true" role="img" class="iconify iconify--twemoji" preserveAspectRatio="xMidYMid meet" fill="#000000" stroke="#000000" stroke-width="0.9720000000000001" transform="rotate(-45)">

<g id="SVGRepo_bgCarrier" stroke-width="0" transform="translate(0,0), scale(1)">

<path transform="translate(-10.8, -10.8), scale(3.6)" fill="#000000" d="M9.166.33a2.25 2.25 0 00-2.332 0l-5.25 3.182A2.25 2.25 0 00.5 5.436v5.128a2.25 2.25 0 001.084 1.924l5.25 3.182a2.25 2.25 0 002.332 0l5.25-3.182a2.25 2.25 0 001.084-1.924V5.436a2.25 2.25 0 00-1.084-1.924L9.166.33z" strokewidth="0"/>

</g>

<g id="SVGRepo_tracerCarrier" stroke-linecap="round" stroke-linejoin="round" stroke="#CCCCCC" stroke-width="0.144"/>

<g id="SVGRepo_iconCarrier">

<path fill="#050505" d="M36 32a4 4 0 0 1-4 4H4a4 4 0 0 1-4-4V4a4 4 0 0 1 4-4h28a4 4 0 0 1 4 4v28z"/>

<path fill="#FFF" d="M10.777 9.342c0-1.488.837-2.418 2.388-2.418h5.457c4.775 0 7.72 2.14 7.72 7.007c0 3.411-2.573 5.364-5.736 5.86l5.272 5.644c.433.465.619.93.619 1.364c0 1.209-.961 2.387-2.324 2.387c-.559 0-1.303-.217-1.799-.806l-6.883-8.341h-.062v6.728c0 1.551-.992 2.418-2.326 2.418s-2.326-.867-2.326-2.418V9.342zm4.651 7.348h3.193c1.705 0 2.884-1.023 2.884-2.759c0-1.767-1.18-2.729-2.884-2.729h-3.193v5.488z"/>

</g>

</svg>