<?xml version="1.0" encoding="UTF-8" standalone="no"?>
<!-- Created with Inkscape (http://www.inkscape.org/) -->

<svg
   xmlns:dc="http://purl.org/dc/elements/1.1/"
   xmlns:cc="http://creativecommons.org/ns#"
   xmlns:rdf="http://www.w3.org/1999/02/22-rdf-syntax-ns#"
   xmlns:svg="http://www.w3.org/2000/svg"
   xmlns="http://www.w3.org/2000/svg"
   xmlns:xlink="http://www.w3.org/1999/xlink"
   version="1.1"
   width="100%"
   height="100%"
   viewBox="0 0 312 40"
   id="svg3016">
  <desc
     id="desc3018">Matlab Figure Converted by PLOT2SVG written by Juerg Schwizer</desc>
  <metadata
     id="metadata3039">
    <rdf:RDF>
      <cc:Work
         rdf:about="">
        <dc:format>image/svg+xml</dc:format>
        <dc:type
           rdf:resource="http://purl.org/dc/dcmitype/StillImage" />
        <dc:title></dc:title>
      </cc:Work>
    </rdf:RDF>
  </metadata>
  <defs
     id="defs3037">
    <linearGradient
       id="linearGradient3809">
      <stop
         id="stop3811"
         style="stop-color:#0000be;stop-opacity:1"
         offset="0" />
      <stop
         id="stop3813"
         style="stop-color:#00f9f9;stop-opacity:0"
         offset="1" />
    </linearGradient>
    <linearGradient
       x1="208.38298"
       y1="126.13298"
       x2="208.2766"
       y2="176.133"
       id="linearGradient3815"
       xlink:href="#linearGradient3809"
       gradientUnits="userSpaceOnUse" />
    <linearGradient
       x1="208.38298"
       y1="126.13298"
       x2="208.2766"
       y2="176.133"
       id="linearGradient3819"
       xlink:href="#linearGradient3809"
       gradientUnits="userSpaceOnUse" />
    <linearGradient
       x1="208.38298"
       y1="126.13298"
       x2="208.2766"
       y2="176.133"
       id="linearGradient3821"
       xlink:href="#linearGradient3809"
       gradientUnits="userSpaceOnUse" />
    <linearGradient
       x1="208.38298"
       y1="126.13298"
       x2="208.2766"
       y2="176.133"
       id="linearGradient3823"
       xlink:href="#linearGradient3809"
       gradientUnits="userSpaceOnUse" />
    <linearGradient
       x1="208.38298"
       y1="126.13298"
       x2="208.2766"
       y2="176.133"
       id="linearGradient3825"
       xlink:href="#linearGradient3809"
       gradientUnits="userSpaceOnUse" />
  </defs>
  <g
     transform="translate(-51.9375,-123.21875)"
     id="g3022"
     style="fill:url(#linearGradient3815);fill-opacity:1">
    <clipPath
       id="ID000000"
       style="fill:url(#linearGradient3815);fill-opacity:1">
      <rect
         width="310"
         height="244.5"
         x="52"
         y="22.5"
         id="rect3025"
         style="fill:url(#linearGradient3815);fill-opacity:1" />
    </clipPath>
    <g
       id="g3027"
       style="fill:url(#linearGradient3825);fill-opacity:1">
      <g
         clip-path="url(#ID000000)"
         id="g3029"
         style="fill:url(#linearGradient3823);fill-opacity:1">
        <polyline
           points="52.000,136.530 52.310,136.530 52.621,136.528 52.931,136.525 53.241,136.520 53.552,136.515 53.862,136.508 54.172,136.500 54.482,136.491 54.793,136.480 55.103,136.469 55.413,136.456 55.724,136.442 56.034,136.427 56.344,136.410 56.655,136.393 56.965,136.374 57.275,136.354 57.586,136.333 57.896,136.311 58.206,136.288 58.517,136.264 58.827,136.239 59.137,136.212 59.447,136.185 59.758,136.156 60.068,136.127 60.378,136.096 60.689,136.065 60.999,136.032 61.309,135.999 61.620,135.964 61.930,135.929 62.240,135.892 62.551,135.855 62.861,135.817 63.171,135.778 63.481,135.738 63.792,135.697 64.102,135.655 64.412,135.612 64.723,135.569 65.033,135.524 65.343,135.479 65.654,135.433 65.964,135.386 66.274,135.338 66.585,135.289 66.895,135.239 67.205,135.189 67.516,135.138 67.826,135.086 68.136,135.033 68.446,134.979 68.757,134.924 69.067,134.869 69.377,134.812 69.688,134.755 69.998,134.697 70.308,134.638 70.619,134.578 70.929,134.517 71.239,134.455 71.550,134.392 71.860,134.329 72.170,134.264 72.480,134.198 72.791,134.132 73.101,134.064 73.411,133.996 73.722,133.927 74.032,133.856 74.342,133.785 74.653,133.712 74.963,133.639 75.273,133.564 75.584,133.489 75.894,133.412 76.204,133.335 76.515,133.256 76.825,133.176 77.135,133.096 77.445,133.014 77.756,132.931 78.066,132.847 78.376,132.762 78.687,132.676 78.997,132.589 79.307,132.501 79.618,132.412 79.928,132.322 80.238,132.230 80.549,132.138 80.859,132.045 81.169,131.951 81.479,131.856 81.790,131.761 82.100,131.664 82.410,131.566 82.721,131.468 83.031,131.369 83.341,131.269 83.652,131.168 83.962,131.067 84.272,130.965 84.583,130.863 84.893,130.760 85.203,130.657 85.514,130.553 85.824,130.449 86.134,130.344 86.444,130.240 86.755,130.135 87.065,130.030 87.375,129.925 87.686,129.820 87.996,129.715 88.306,129.610 88.617,129.505 88.927,129.401 89.237,129.297 89.548,129.194 89.858,129.091 90.168,128.989 90.478,128.887 90.789,128.786 91.099,128.687 91.409,128.588 91.720,128.490 92.030,128.393 92.340,128.298 92.651,128.203 92.961,128.111 93.271,128.019 93.582,127.930 93.892,127.841 94.202,127.755 94.513,127.670 94.823,127.588 95.133,127.507 95.443,127.429 95.754,127.352 96.064,127.278 96.374,127.206 96.685,127.136 96.995,127.069 97.305,127.005 97.616,126.943 97.926,126.884 98.236,126.827 98.547,126.773 98.857,126.722 99.167,126.674 99.477,126.629 99.788,126.587 100.098,126.548 100.408,126.512 100.719,126.479 101.029,126.450 101.339,126.423 101.650,126.400 101.960,126.380 102.270,126.363 102.581,126.350 102.891,126.340 103.201,126.333 103.512,126.330 103.822,126.330 104.132,126.333 104.442,126.340 104.753,126.350 105.063,126.363 105.373,126.380 105.684,126.400 105.994,126.423 106.304,126.450 106.615,126.479 106.925,126.512 107.235,126.548 107.546,126.587 107.856,126.629 108.166,126.674 108.476,126.722 108.787,126.773 109.097,126.827 109.407,126.884 109.718,126.943 110.028,127.005 110.338,127.069 110.649,127.136 110.959,127.206 111.269,127.278 111.580,127.352 111.890,127.429 112.200,127.507 112.511,127.588 112.821,127.670 113.131,127.755 113.441,127.841 113.752,127.930 114.062,128.019 114.372,128.111 114.683,128.203 114.993,128.298 115.303,128.393 115.614,128.490 115.924,128.588 116.234,128.687 116.545,128.786 116.855,128.887 117.165,128.989 117.475,129.091 117.786,129.194 118.096,129.297 118.406,129.401 118.717,129.505 119.027,129.610 119.337,129.715 119.648,129.820 119.958,129.925 120.268,130.030 120.579,130.135 120.889,130.240 121.199,130.344 121.510,130.449 121.820,130.553 122.130,130.657 122.440,130.760 122.751,130.863 123.061,130.965 123.371,131.067 123.682,131.168 123.992,131.269 124.302,131.369 124.613,131.468 124.923,131.566 125.233,131.664 125.544,131.761 125.854,131.856 126.164,131.951 126.474,132.045 126.785,132.138 127.095,132.230 127.405,132.322 127.716,132.412 128.026,132.501 128.336,132.589 128.647,132.676 128.957,132.762 129.267,132.847 129.578,132.931 129.888,133.014 130.198,133.096 130.509,133.176 130.819,133.256 131.129,133.335 131.439,133.412 131.750,133.489 132.060,133.564 132.370,133.639 132.681,133.712 132.991,133.785 133.301,133.856 133.612,133.927 133.922,133.996 134.232,134.064 134.543,134.132 134.853,134.198 135.163,134.264 135.473,134.329 135.784,134.392 136.094,134.455 136.404,134.517 136.715,134.578 137.025,134.638 137.335,134.697 137.646,134.755 137.956,134.812 138.266,134.869 138.577,134.924 138.887,134.979 139.197,135.033 139.508,135.086 139.818,135.138 140.128,135.189 140.438,135.239 140.749,135.289 141.059,135.338 141.369,135.386 141.680,135.433 141.990,135.479 142.300,135.524 142.611,135.569 142.921,135.612 143.231,135.655 143.542,135.697 143.852,135.738 144.162,135.778 144.472,135.817 144.783,135.855 145.093,135.892 145.403,135.929 145.714,135.964 146.024,135.999 146.334,136.032 146.645,136.065 146.955,136.096 147.265,136.127 147.576,136.156 147.886,136.185 148.196,136.212 148.507,136.239 148.817,136.264 149.127,136.288 149.437,136.311 149.748,136.333 150.058,136.354 150.368,136.374 150.679,136.393 150.989,136.410 151.299,136.427 151.610,136.442 151.920,136.456 152.230,136.469 152.541,136.480 152.851,136.491 153.161,136.500 153.471,136.508 153.782,136.515 154.092,136.520 154.402,136.525 154.713,136.528 155.023,136.530 155.333,136.530 155.644,136.530 155.954,136.528 156.264,136.525 156.575,136.520 156.885,136.515 157.195,136.508 157.506,136.500 157.816,136.491 158.126,136.480 158.436,136.469 158.747,136.456 159.057,136.442 159.367,136.427 159.678,136.410 159.988,136.393 160.298,136.374 160.609,136.354 160.919,136.333 161.229,136.311 161.540,136.288 161.850,136.264 162.160,136.239 162.470,136.212 162.781,136.185 163.091,136.156 163.401,136.127 163.712,136.096 164.022,136.065 164.332,136.032 164.643,135.999 164.953,135.964 165.263,135.929 165.574,135.892 165.884,135.855 166.194,135.817 166.505,135.778 166.815,135.738 167.125,135.697 167.435,135.655 167.746,135.612 168.056,135.569 168.366,135.524 168.677,135.479 168.987,135.433 169.297,135.386 169.608,135.338 169.918,135.289 170.228,135.239 170.539,135.189 170.849,135.138 171.159,135.086 171.469,135.033 171.780,134.979 172.090,134.924 172.400,134.869 172.711,134.812 173.021,134.755 173.331,134.697 173.642,134.638 173.952,134.578 174.262,134.517 174.573,134.455 174.883,134.392 175.193,134.329 175.504,134.264 175.814,134.198 176.124,134.132 176.434,134.064 176.745,133.996 177.055,133.927 177.365,133.856 177.676,133.785 177.986,133.712 178.296,133.639 178.607,133.564 178.917,133.489 179.227,133.412 179.538,133.335 179.848,133.256 180.158,133.176 180.468,133.096 180.779,133.014 181.089,132.931 181.399,132.847 181.710,132.762 182.020,132.676 182.330,132.589 182.641,132.501 182.951,132.412 183.261,132.322 183.572,132.230 183.882,132.138 184.192,132.045 184.503,131.951 184.813,131.856 185.123,131.761 185.433,131.664 185.744,131.566 186.054,131.468 186.364,131.369 186.675,131.269 186.985,131.168 187.295,131.067 187.606,130.965 187.916,130.863 188.226,130.760 188.537,130.657 188.847,130.553 189.157,130.449 189.467,130.344 189.778,130.240 190.088,130.135 190.398,130.030 190.709,129.925 191.019,129.820 191.329,129.715 191.640,129.610 191.950,129.505 192.260,129.401 192.571,129.297 192.881,129.194 193.191,129.091 193.502,128.989 193.812,128.887 194.122,128.786 194.432,128.687 194.743,128.588 195.053,128.490 195.363,128.393 195.674,128.298 195.984,128.203 196.294,128.111 196.605,128.019 196.915,127.930 197.225,127.841 197.536,127.755 197.846,127.670 198.156,127.588 198.466,127.507 198.777,127.429 199.087,127.352 199.397,127.278 199.708,127.206 200.018,127.136 200.328,127.069 200.639,127.005 200.949,126.943 201.259,126.884 201.570,126.827 201.880,126.773 202.190,126.722 202.501,126.674 202.811,126.629 203.121,126.587 203.431,126.548 203.742,126.512 204.052,126.479 204.362,126.450 204.673,126.423 204.983,126.400 205.293,126.380 205.604,126.363 205.914,126.350 206.224,126.340 206.535,126.333 206.845,126.330 207.155,126.330 207.465,126.333 207.776,126.340 208.086,126.350 208.396,126.363 208.707,126.380 209.017,126.400 209.327,126.423 209.638,126.450 209.948,126.479 210.258,126.512 210.569,126.548 210.879,126.587 211.189,126.629 211.499,126.674 211.810,126.722 212.120,126.773 212.430,126.827 212.741,126.884 213.051,126.943 213.361,127.005 213.672,127.069 213.982,127.136 214.292,127.206 214.603,127.278 214.913,127.352 215.223,127.429 215.534,127.507 215.844,127.588 216.154,127.670 216.464,127.755 216.775,127.841 217.085,127.930 217.395,128.019 217.706,128.111 218.016,128.203 218.326,128.298 218.637,128.393 218.947,128.490 219.257,128.588 219.568,128.687 219.878,128.786 220.188,128.887 220.498,128.989 220.809,129.091 221.119,129.194 221.429,129.297 221.740,129.401 222.050,129.505 222.360,129.610 222.671,129.715 222.981,129.820 223.291,129.925 223.602,130.030 223.912,130.135 224.222,130.240 224.533,130.344 224.843,130.449 225.153,130.553 225.463,130.657 225.774,130.760 226.084,130.863 226.394,130.965 226.705,131.067 227.015,131.168 227.325,131.269 227.636,131.369 227.946,131.468 228.256,131.566 228.567,131.664 228.877,131.761 229.187,131.856 229.497,131.951 229.808,132.045 230.118,132.138 230.428,132.230 230.739,132.322 231.049,132.412 231.359,132.501 231.670,132.589 231.980,132.676 232.290,132.762 232.601,132.847 232.911,132.931 233.221,133.014 233.532,133.096 233.842,133.176 234.152,133.256 234.462,133.335 234.773,133.412 235.083,133.489 235.393,133.564 235.704,133.639 236.014,133.712 236.324,133.785 236.635,133.856 236.945,133.927 237.255,133.996 237.566,134.064 237.876,134.132 238.186,134.198 238.496,134.264 238.807,134.329 239.117,134.392 239.427,134.455 239.738,134.517 240.048,134.578 240.358,134.638 240.669,134.697 240.979,134.755 241.289,134.812 241.600,134.869 241.910,134.924 242.220,134.979 242.531,135.033 242.841,135.086 243.151,135.138 243.461,135.189 243.772,135.239 244.082,135.289 244.392,135.338 244.703,135.386 245.013,135.433 245.323,135.479 245.634,135.524 245.944,135.569 246.254,135.612 246.565,135.655 246.875,135.697 247.185,135.738 247.495,135.778 247.806,135.817 248.116,135.855 248.426,135.892 248.737,135.929 249.047,135.964 249.357,135.999 249.668,136.032 249.978,136.065 250.288,136.096 250.599,136.127 250.909,136.156 251.219,136.185 251.530,136.212 251.840,136.239 252.150,136.264 252.460,136.288 252.771,136.311 253.081,136.333 253.391,136.354 253.702,136.374 254.012,136.393 254.322,136.410 254.633,136.427 254.943,136.442 255.253,136.456 255.564,136.469 255.874,136.480 256.184,136.491 256.494,136.500 256.805,136.508 257.115,136.515 257.425,136.520 257.736,136.525 258.046,136.528 258.356,136.530 258.667,136.530 258.977,136.530 259.287,136.528 259.598,136.525 259.908,136.520 260.218,136.515 260.529,136.508 260.839,136.500 261.149,136.491 261.459,136.480 261.770,136.469 262.080,136.456 262.390,136.442 262.701,136.427 263.011,136.410 263.321,136.393 263.632,136.374 263.942,136.354 264.252,136.333 264.563,136.311 264.873,136.288 265.183,136.264 265.493,136.239 265.804,136.212 266.114,136.185 266.424,136.156 266.735,136.127 267.045,136.096 267.355,136.065 267.666,136.032 267.976,135.999 268.286,135.964 268.597,135.929 268.907,135.892 269.217,135.855 269.528,135.817 269.838,135.778 270.148,135.738 270.458,135.697 270.769,135.655 271.079,135.612 271.389,135.569 271.700,135.524 272.010,135.479 272.320,135.433 272.631,135.386 272.941,135.338 273.251,135.289 273.562,135.239 273.872,135.189 274.182,135.138 274.492,135.086 274.803,135.033 275.113,134.979 275.423,134.924 275.734,134.869 276.044,134.812 276.354,134.755 276.665,134.697 276.975,134.638 277.285,134.578 277.596,134.517 277.906,134.455 278.216,134.392 278.527,134.329 278.837,134.264 279.147,134.198 279.457,134.132 279.768,134.064 280.078,133.996 280.388,133.927 280.699,133.856 281.009,133.785 281.319,133.712 281.630,133.639 281.940,133.564 282.250,133.489 282.561,133.412 282.871,133.335 283.181,133.256 283.491,133.176 283.802,133.096 284.112,133.014 284.422,132.931 284.733,132.847 285.043,132.762 285.353,132.676 285.664,132.589 285.974,132.501 286.284,132.412 286.595,132.322 286.905,132.230 287.215,132.138 287.526,132.045 287.836,131.951 288.146,131.856 288.456,131.761 288.767,131.664 289.077,131.566 289.387,131.468 289.698,131.369 290.008,131.269 290.318,131.168 290.629,131.067 290.939,130.965 291.249,130.863 291.560,130.760 291.870,130.657 292.180,130.553 292.490,130.449 292.801,130.344 293.111,130.240 293.421,130.135 293.732,130.030 294.042,129.925 294.352,129.820 294.663,129.715 294.973,129.610 295.283,129.505 295.594,129.401 295.904,129.297 296.214,129.194 296.525,129.091 296.835,128.989 297.145,128.887 297.455,128.786 297.766,128.687 298.076,128.588 298.386,128.490 298.697,128.393 299.007,128.298 299.317,128.203 299.628,128.111 299.938,128.019 300.248,127.930 300.559,127.841 300.869,127.755 301.179,127.670 301.489,127.588 301.800,127.507 302.110,127.429 302.420,127.352 302.731,127.278 303.041,127.206 303.351,127.136 303.662,127.069 303.972,127.005 304.282,126.943 304.593,126.884 304.903,126.827 305.213,126.773 305.524,126.722 305.834,126.674 306.144,126.629 306.454,126.587 306.765,126.548 307.075,126.512 307.385,126.479 307.696,126.450 308.006,126.423 308.316,126.400 308.627,126.380 308.937,126.363 309.247,126.350 309.558,126.340 309.868,126.333 310.178,126.330 310.488,126.330 310.799,126.333 311.109,126.340 311.419,126.350 311.730,126.363 312.040,126.380 312.350,126.400 312.661,126.423 312.971,126.450 313.281,126.479 313.592,126.512 313.902,126.548 314.212,126.587 314.523,126.629 314.833,126.674 315.143,126.722 315.453,126.773 315.764,126.827 316.074,126.884 316.384,126.943 316.695,127.005 317.005,127.069 317.315,127.136 317.626,127.206 317.936,127.278 318.246,127.352 318.557,127.429 318.867,127.507 319.177,127.588 319.487,127.670 319.798,127.755 320.108,127.841 320.418,127.930 320.729,128.019 321.039,128.111 321.349,128.203 321.660,128.298 321.970,128.393 322.280,128.490 322.591,128.588 322.901,128.687 323.211,128.786 323.522,128.887 323.832,128.989 324.142,129.091 324.452,129.194 324.763,129.297 325.073,129.401 325.383,129.505 325.694,129.610 326.004,129.715 326.314,129.820 326.625,129.925 326.935,130.030 327.245,130.135 327.556,130.240 327.866,130.344 328.176,130.449 328.486,130.553 328.797,130.657 329.107,130.760 329.417,130.863 329.728,130.965 330.038,131.067 330.348,131.168 330.659,131.269 330.969,131.369 331.279,131.468 331.590,131.566 331.900,131.664 332.210,131.761 332.521,131.856 332.831,131.951 333.141,132.045 333.451,132.138 333.762,132.230 334.072,132.322 334.382,132.412 334.693,132.501 335.003,132.589 335.313,132.676 335.624,132.762 335.934,132.847 336.244,132.931 336.555,133.014 336.865,133.096 337.175,133.176 337.485,133.256 337.796,133.335 338.106,133.412 338.416,133.489 338.727,133.564 339.037,133.639 339.347,133.712 339.658,133.785 339.968,133.856 340.278,133.927 340.589,133.996 340.899,134.064 341.209,134.132 341.520,134.198 341.830,134.264 342.140,134.329 342.450,134.392 342.761,134.455 343.071,134.517 343.381,134.578 343.692,134.638 344.002,134.697 344.312,134.755 344.623,134.812 344.933,134.869 345.243,134.924 345.554,134.979 345.864,135.033 346.174,135.086 346.484,135.138 346.795,135.189 347.105,135.239 347.415,135.289 347.726,135.338 348.036,135.386 348.346,135.433 348.657,135.479 348.967,135.524 349.277,135.569 349.588,135.612 349.898,135.655 350.208,135.697 350.519,135.738 350.829,135.778 351.139,135.817 351.449,135.855 351.760,135.892 352.070,135.929 352.380,135.964 352.691,135.999 353.001,136.032 353.311,136.065 353.622,136.096 353.932,136.127 354.242,136.156 354.553,136.185 354.863,136.212 355.173,136.239 355.483,136.264 355.794,136.288 356.104,136.311 356.414,136.333 356.725,136.354 357.035,136.374 357.345,136.393 357.656,136.410 357.966,136.427 358.276,136.442 358.587,136.456 358.897,136.469 359.207,136.480 359.518,136.491 359.828,136.500 360.138,136.508 360.448,136.515 360.759,136.520 361.069,136.525 361.379,136.528 361.690,136.530 362.000,136.530 362.000,163.170 52.000,163.170 52.000,136.530 "
           id="polyline3031"
           style="fill:url(#linearGradient3819);fill-opacity:1;stroke:#0000ff;stroke-width:0;stroke-miterlimit:4;stroke-dasharray:none"
           transform="translate(1.0638297,-1.5957447)" />
        <g
           id="g3033"
           style="fill:url(#linearGradient3821);fill-opacity:1" />
      </g>
    </g>
  </g>
</svg>
